<?xml version="1.0" encoding="UTF-8"?> <svg xmlns="http://www.w3.org/2000/svg" width="50" height="50" viewBox="0 0 50 50" fill="none"><g clip-path="url(#clip0_21_1446)"><path fill-rule="evenodd" clip-rule="evenodd" d="M48.7036 4.27859C49.0652 4.57732 49.3645 4.94436 49.5843 5.35876C49.804 5.77315 49.94 6.22679 49.9845 6.69375C50.0289 7.16071 49.9809 7.63185 49.8433 8.08026C49.7056 8.52867 49.481 8.94558 49.1822 9.30716L20.4679 44.0572L20.4572 44.0643C19.8044 44.8492 18.9849 45.4787 18.0581 45.9069C17.1314 46.335 16.1208 46.5511 15.1 46.5393C14.064 46.5267 13.0442 46.2798 12.117 45.8172C11.1899 45.3546 10.3795 44.6882 9.74645 43.8679L9.74287 43.8607L0.750018 32.3036C0.449743 31.9348 0.226164 31.5097 0.0923999 31.0532C-0.0413639 30.5968 -0.0826171 30.1183 -0.0289388 29.6457C0.0247394 29.1731 0.172268 28.716 0.404989 28.3013C0.63771 27.8865 0.950935 27.5223 1.32628 27.2303C1.70163 26.9382 2.13154 26.724 2.59079 26.6003C3.05003 26.4766 3.52936 26.4458 4.00064 26.5099C4.47192 26.5739 4.92566 26.7315 5.33523 26.9733C5.7448 27.215 6.10196 27.5362 6.38573 27.9179L15.1857 39.2286L43.6714 4.75716C43.9702 4.39552 44.3372 4.09626 44.7516 3.87648C45.166 3.6567 45.6196 3.52071 46.0866 3.47627C46.5536 3.43183 47.0247 3.47981 47.4731 3.61747C47.9215 3.75514 48.3384 3.97979 48.7 4.27859H48.7036Z" fill="url(#paint0_linear_21_1446)"></path></g><defs><linearGradient id="paint0_linear_21_1446" x1="24.9744" y1="3.46021" x2="24.9744" y2="46.5398" gradientUnits="userSpaceOnUse"><stop stop-color="#FC892E"></stop><stop offset="1" stop-color="#F6CA45"></stop></linearGradient><clipPath id="clip0_21_1446"><rect width="50" height="50" fill="white"></rect></clipPath></defs></svg> 