<?xml version="1.0" encoding="UTF-8"?> <svg xmlns="http://www.w3.org/2000/svg" width="15" height="15" viewBox="0 0 15 15" fill="none"><path fill-rule="evenodd" clip-rule="evenodd" d="M3.21455 0C2.36221 -6.28492e-08 1.54477 0.338505 0.941956 0.941084C0.339147 1.54366 0.000327319 2.36098 0 3.21332V11.7854C0 12.638 0.338675 13.4556 0.94152 14.0585C1.54437 14.6613 2.362 15 3.21455 15H11.7867C12.639 14.9997 13.4563 14.6609 14.0589 14.058C14.6615 13.4552 15 12.6378 15 11.7854V3.21332C14.9997 2.36119 14.661 1.54406 14.0585 0.94152C13.4559 0.338977 12.6388 0.000327174 11.7867 0H3.21455ZM12.7113 3.21825C12.7113 3.4638 12.6138 3.6993 12.4401 3.87293C12.2665 4.04656 12.031 4.1441 11.7854 4.1441C11.5399 4.1441 11.3044 4.04656 11.1308 3.87293C10.9571 3.6993 10.8596 3.4638 10.8596 3.21825C10.8596 2.9727 10.9571 2.73721 11.1308 2.56358C11.3044 2.38995 11.5399 2.2924 11.7854 2.2924C12.031 2.2924 12.2665 2.38995 12.4401 2.56358C12.6138 2.73721 12.7113 2.9727 12.7113 3.21825ZM7.50185 4.93169C6.82086 4.93169 6.16776 5.20222 5.68622 5.68375C5.20469 6.16529 4.93416 6.81839 4.93416 7.49938C4.93416 8.18038 5.20469 8.83348 5.68622 9.31501C6.16776 9.79655 6.82086 10.0671 7.50185 10.0671C8.18285 10.0671 8.83595 9.79655 9.31748 9.31501C9.79902 8.83348 10.0695 8.18038 10.0695 7.49938C10.0695 6.81839 9.79902 6.16529 9.31748 5.68375C8.83595 5.20222 8.18285 4.93169 7.50185 4.93169ZM3.69846 7.49938C3.69846 6.49099 4.09904 5.5239 4.81209 4.81085C5.52513 4.09781 6.49222 3.69723 7.50062 3.69723C8.50901 3.69723 9.47611 4.09781 10.1891 4.81085C10.9022 5.5239 11.3028 6.49099 11.3028 7.49938C11.3028 8.50778 10.9022 9.47487 10.1891 10.1879C9.47611 10.901 8.50901 11.3015 7.50062 11.3015C6.49222 11.3015 5.52513 10.901 4.81209 10.1879C4.09904 9.47487 3.69846 8.50778 3.69846 7.49938Z" fill="black"></path><path fill-rule="evenodd" clip-rule="evenodd" d="M3.21455 0C2.36221 -6.28492e-08 1.54477 0.338505 0.941956 0.941084C0.339147 1.54366 0.000327319 2.36098 0 3.21332V11.7854C0 12.638 0.338675 13.4556 0.94152 14.0585C1.54437 14.6613 2.362 15 3.21455 15H11.7867C12.639 14.9997 13.4563 14.6609 14.0589 14.058C14.6615 13.4552 15 12.6378 15 11.7854V3.21332C14.9997 2.36119 14.661 1.54406 14.0585 0.94152C13.4559 0.338977 12.6388 0.000327174 11.7867 0H3.21455ZM12.7113 3.21825C12.7113 3.4638 12.6138 3.6993 12.4401 3.87293C12.2665 4.04656 12.031 4.1441 11.7854 4.1441C11.5399 4.1441 11.3044 4.04656 11.1308 3.87293C10.9571 3.6993 10.8596 3.4638 10.8596 3.21825C10.8596 2.9727 10.9571 2.73721 11.1308 2.56358C11.3044 2.38995 11.5399 2.2924 11.7854 2.2924C12.031 2.2924 12.2665 2.38995 12.4401 2.56358C12.6138 2.73721 12.7113 2.9727 12.7113 3.21825ZM7.50185 4.93169C6.82086 4.93169 6.16776 5.20222 5.68622 5.68375C5.20469 6.16529 4.93416 6.81839 4.93416 7.49938C4.93416 8.18038 5.20469 8.83348 5.68622 9.31501C6.16776 9.79655 6.82086 10.0671 7.50185 10.0671C8.18285 10.0671 8.83595 9.79655 9.31748 9.31501C9.79902 8.83348 10.0695 8.18038 10.0695 7.49938C10.0695 6.81839 9.79902 6.16529 9.31748 5.68375C8.83595 5.20222 8.18285 4.93169 7.50185 4.93169ZM3.69846 7.49938C3.69846 6.49099 4.09904 5.5239 4.81209 4.81085C5.52513 4.09781 6.49222 3.69723 7.50062 3.69723C8.50901 3.69723 9.47611 4.09781 10.1891 4.81085C10.9022 5.5239 11.3028 6.49099 11.3028 7.49938C11.3028 8.50778 10.9022 9.47487 10.1891 10.1879C9.47611 10.901 8.50901 11.3015 7.50062 11.3015C6.49222 11.3015 5.52513 10.901 4.81209 10.1879C4.09904 9.47487 3.69846 8.50778 3.69846 7.49938Z" fill="url(#paint0_linear_47_97)"></path><defs><linearGradient id="paint0_linear_47_97" x1="7.49999" y1="0" x2="7.49999" y2="15" gradientUnits="userSpaceOnUse"><stop stop-color="#000E95"></stop><stop offset="0.355" stop-color="#505ECE"></stop><stop offset="0.685" stop-color="#FC892E"></stop><stop offset="1" stop-color="#F6CA45"></stop></linearGradient></defs></svg> 