<?xml version="1.0" encoding="UTF-8"?> <svg xmlns="http://www.w3.org/2000/svg" width="140" height="140" viewBox="0 0 140 140" fill="none"><circle cx="70" cy="70" r="70" fill="white"></circle><path d="M93 70.5C93.0015 71.1137 92.8471 71.7174 92.552 72.2523C92.2569 72.7873 91.8311 73.2352 91.3159 73.5526L59.3891 93.4679C58.8508 93.804 58.2343 93.9875 57.6032 93.9994C56.9722 94.0113 56.3494 93.8512 55.7993 93.5357C55.2544 93.225 54.8006 92.772 54.4843 92.2232C54.1681 91.6744 54.0009 91.0496 54 90.413V50.587C54.0009 49.9504 54.1681 49.3256 54.4843 48.7768C54.8006 48.228 55.2544 47.775 55.7993 47.4643C56.3494 47.1488 56.9722 46.9887 57.6032 47.0006C58.2343 47.0125 58.8508 47.196 59.3891 47.5321L91.3159 67.4474C91.8311 67.7648 92.2569 68.2127 92.552 68.7477C92.8471 69.2826 93.0015 69.8863 93 70.5Z" fill="#FC892E"></path></svg> 