<?xml version="1.0" encoding="UTF-8"?> <svg xmlns="http://www.w3.org/2000/svg" width="251" height="43" viewBox="0 0 251 43" fill="none"><path fill-rule="evenodd" clip-rule="evenodd" d="M18.5222 2.84714L15.9238 5.66955V16.2723C15.9238 22.1039 15.9853 26.875 16.0606 26.875C16.1358 26.875 17.3938 26.3063 18.8559 25.6113C21.4088 24.3982 21.518 24.3098 21.5987 23.3941C21.7717 21.4239 21.5214 0.000537374 21.3253 0.0123624C21.2127 0.0190811 19.9514 1.29457 18.5222 2.84714ZM22.9465 12.2254V24.4509L25.469 25.6629C26.8564 26.3294 28.0573 26.875 28.1376 26.875C28.218 26.875 28.2837 22.088 28.2837 16.2371V5.59887L25.7218 2.79957C24.3128 1.2599 23.1119 0 23.0532 0C22.9945 0 22.9465 5.50131 22.9465 12.2254ZM15.7833 1.5953C8.53701 3.6679 3.01576 8.97786 0.935076 15.8753C-1.15544 22.8059 0.281966 29.6756 5.01976 35.3957C7.06926 37.8698 11.5526 41.0236 13.7467 41.5345L14.5192 41.7146L14.5108 40.0056L14.5026 38.2969L12.7568 37.3562C10.6194 36.2047 7.40467 33.1697 6.12654 31.0965C2.58485 25.3525 2.58485 18.4352 6.12654 12.7164C7.42377 10.6215 10.352 7.83406 12.5529 6.59835C14.2703 5.63407 15.6142 4.44029 17.6351 2.08281C18.6547 0.893594 18.437 0.83635 15.7833 1.5953ZM26.0834 1.32386C26.4056 2.18091 30.1782 5.70449 31.5757 6.45403C32.469 6.93321 34.2302 8.3205 35.4898 9.53713C37.3034 11.2888 38.0144 12.2184 38.9057 14.0043C41.5768 19.3567 41.576 24.4514 38.9032 29.8071C37.9877 31.641 37.3169 32.5058 35.3469 34.3919C33.8395 35.8351 32.3063 37.0163 31.304 37.5067L29.6897 38.2969L29.6888 39.9766C29.6882 41.9503 29.8214 42.0062 32.015 40.9524C39.6293 37.2944 44.2955 30.0562 44.2955 21.9031C44.2955 12.506 38.0691 4.39353 28.7458 1.64314C26.648 1.02421 25.9384 0.939281 26.0834 1.32386ZM124.201 8.18478C123.207 9.13562 123.232 10.9467 124.252 11.9228C125.359 12.982 127.134 12.9277 128.121 11.8043C128.907 10.9118 129.061 9.75132 128.522 8.78382C128.006 7.85771 127.396 7.54274 126.097 7.5336C125.183 7.52715 124.723 7.68491 124.201 8.18478ZM116.208 11.4401V15.0866L115.435 14.5719C112.579 12.6689 108.164 13.2032 105.842 15.7329C103.145 18.6717 102.901 23.5675 105.293 26.7541C107.68 29.9336 112.262 30.8114 115.435 28.6969L116.208 28.1822V28.8724C116.208 29.5558 116.23 29.5625 118.455 29.5625H120.702V18.6781V7.79375H118.455H116.208V11.4401ZM140.928 18.6781V29.5625H142.332H143.737V28.6173V27.6724L145.145 28.599C149.329 31.3526 155.089 29.9033 157.56 25.4751C158.108 24.4939 158.204 23.9212 158.204 21.6344C158.204 19.3597 158.106 18.7727 157.57 17.8122C156.576 16.0325 155.35 14.8659 153.62 14.0529C152.264 13.416 151.685 13.3053 149.776 13.3171C147.419 13.3319 145.798 13.8742 144.369 15.1271L143.737 15.6813V11.7374V7.79375H142.332H140.928V18.6781ZM215.087 10.75V13.7062H213.542H211.997V14.7813V15.8562H213.542H215.087V22.7094V29.5625H216.352H217.616V22.7094V15.8562H219.301H220.987V14.7813V13.7062H219.301H217.616V10.75V7.79375H216.352H215.087V10.75ZM132.22 10.8844V13.7062H131.236H130.253V15.5875V17.4688H131.236H132.22V23.5156V29.5625H134.326H136.433V23.5156V17.4688H137.697H138.961V15.5875V13.7062H137.697H136.433V10.8844V8.0625H134.326H132.22V10.8844ZM166.994 13.5286C165.158 14.025 163.605 15.1271 162.446 16.7563C159.363 21.0896 160.966 27.0709 165.802 29.2825C167.755 30.175 171.096 30.2005 173.092 29.3376C174.925 28.5453 176.692 26.8659 177.493 25.1547C178.401 23.2135 178.395 20.0423 177.479 18.0831C176.728 16.4768 174.646 14.4811 173.05 13.8377C171.571 13.2413 168.614 13.0903 166.994 13.5286ZM186.807 13.5394C184.273 14.3324 182.655 15.7297 181.478 18.1406C180.962 19.1984 180.821 19.9469 180.82 21.6586C180.817 23.5473 180.929 24.0483 181.673 25.4716C183.258 28.5068 185.683 29.9138 189.384 29.9457C191.302 29.9621 191.867 29.8546 193.237 29.2112C196.276 27.7842 198.07 24.9714 198.07 21.6344C198.07 16.9729 194.655 13.5157 189.806 13.2663C188.748 13.2117 187.486 13.3268 186.807 13.5394ZM202.998 13.7734C201.599 14.4483 200.48 16.15 200.48 17.6031C200.48 18.0578 200.765 18.9694 201.112 19.629C201.627 20.6051 202.162 21.066 203.992 22.1066C207.604 24.1622 208.256 25.2778 206.686 26.7172C205.54 27.7672 204.172 27.7323 202.509 26.6108L201.241 25.7557L200.59 26.5168C199.771 27.474 199.766 27.7229 200.55 28.4093C204.24 31.6367 210.031 29.7143 210.031 25.2625C210.031 23.008 209.219 22.0493 205.603 20.0324C204.635 19.4927 203.642 18.7566 203.395 18.3962C202.78 17.4983 203.097 16.5029 204.166 15.9737C205.201 15.4615 206.151 15.6297 207.414 16.5491C208.529 17.3604 208.616 17.3524 209.431 16.3666C210.081 15.5794 210.084 15.5515 209.572 14.9997C208.822 14.1935 206.411 13.1744 205.245 13.1714C204.698 13.1698 203.687 13.441 202.998 13.7734ZM228.425 13.6364C226.527 14.2862 225.376 15.1121 224.32 16.5805C222.064 19.7176 222.132 23.8685 224.489 26.9253C227.704 31.0925 235.197 31.0232 238.316 26.7973C239.605 25.0513 239.601 25.0819 238.582 24.4791C237.316 23.7304 237.146 23.7613 236.431 24.8682C235.148 26.8532 232.087 28.0287 229.76 27.4292C227.65 26.8857 225.506 24.4834 225.487 22.6422L225.481 22.0375H232.683H239.885L239.737 20.4753C239.564 18.6416 238.567 16.6216 237.234 15.3996C235.12 13.462 231.216 12.6807 228.425 13.6364ZM247.392 13.4555C247.006 13.6103 246.342 14.0551 245.917 14.4437L245.145 15.1505V14.4284C245.145 13.7409 245.077 13.7062 243.74 13.7062H242.336V21.6344V29.5625H243.715H245.094L245.194 24.2547C245.287 19.3742 245.346 18.8552 245.926 17.8087C246.728 16.3599 247.633 15.7888 248.954 15.8976C249.882 15.974 250.042 15.8853 250.584 14.9919C251.04 14.2394 251.105 13.9266 250.857 13.689C250.408 13.259 248.246 13.1134 247.392 13.4555ZM61.4308 13.6737C57.4037 14.936 55.1638 17.7206 55.1349 21.5C55.116 23.9394 55.5169 25.1249 56.9433 26.8516C58.4538 28.6794 60.5232 29.6168 63.4014 29.7762C64.6245 29.8439 66.2153 29.7538 67.0069 29.5722C68.467 29.237 70.7168 27.8938 71.4149 26.9403C71.7859 26.4337 71.7 26.3289 70.0808 25.3109L68.3504 24.2227L67.5465 24.8699C65.0374 26.8898 60.9244 26.104 59.7446 23.3794C59.2558 22.2501 59.5235 20.1345 60.2847 19.1116C61.2005 17.881 62.4182 17.3588 64.4023 17.3457C65.8425 17.3363 66.2681 17.4499 67.1223 18.0734C67.6794 18.4801 68.2861 18.8125 68.471 18.8125C68.9668 18.8125 71.8244 17.2003 71.8244 16.9205C71.8244 16.4281 69.7232 14.6936 68.4785 14.1588C67.0813 13.5584 62.75 13.2604 61.4308 13.6737ZM78.9974 14.2717L78.0044 15.1056V14.4061C78.0044 13.724 77.9583 13.7062 76.1785 13.7062H74.3526V21.6344V29.5625H76.4594H78.5662V25.1413C78.5662 22.7096 78.7027 20.1106 78.8699 19.3656C79.2455 17.6899 80.2059 16.8256 81.2644 17.2108C81.7613 17.3914 81.9908 17.3685 82.0765 17.1299C82.1419 16.9466 82.4509 16.1374 82.7633 15.3314C83.429 13.6133 83.302 13.4477 81.3149 13.4415C80.2303 13.4383 79.8104 13.5888 78.9974 14.2717ZM89.7233 13.8081C87.1679 14.7178 85.081 16.9399 84.4414 19.432C84.0113 21.1071 84.2442 23.7715 84.9524 25.2789C85.6701 26.8067 87.3488 28.4104 88.9598 29.107C90.6967 29.8581 94.0142 30.0261 96.0308 29.4652C97.5885 29.032 100.196 27.1747 100.196 26.4985C100.196 26.3165 99.4545 25.8285 98.548 25.4141L96.9 24.6605L95.644 25.3646C93.1355 26.7713 90.041 26.1064 88.8904 23.9134L88.3997 22.9781L94.8962 22.9058L101.393 22.8335L101.26 20.8902C101.052 17.8437 99.7076 15.7592 97.0592 14.3787C95.8013 13.7229 95.1786 13.5845 93.1734 13.5138C91.6096 13.4587 90.4191 13.5603 89.7233 13.8081ZM124.073 21.6344V29.5625H126.18H128.287V21.6344V13.7062H126.18H124.073V21.6344ZM11.6399 15.4695L9.18197 16.6684V23.3842C9.18197 27.0779 9.2477 30.1 9.32804 30.1C9.40838 30.1 10.6093 29.5544 11.9967 28.8879L14.5192 27.6759V20.9598C14.5192 17.2658 14.4246 14.2499 14.3085 14.2575C14.1925 14.2647 12.9919 14.8103 11.6399 15.4695ZM29.6882 20.9598V27.6759L32.2108 28.8879C33.5982 29.5544 34.8623 30.1 35.0199 30.1C35.207 30.1 35.3064 27.7699 35.3064 23.3839V16.6679L32.7839 15.4558C31.3964 14.7893 30.1324 14.2437 29.9748 14.2437C29.7877 14.2437 29.6882 16.5738 29.6882 20.9598ZM147.737 15.9318C145.253 16.8329 143.645 19.024 143.652 21.5C143.657 23.3001 144.194 24.5836 145.444 25.7793C146.661 26.9435 147.864 27.4125 149.636 27.4125C151.461 27.4125 152.657 26.9239 153.95 25.65C156.093 23.5395 156.241 20.3538 154.308 17.942C152.772 16.0256 149.9 15.147 147.737 15.9318ZM230.116 15.8388C228.979 16.1038 227.685 16.7687 227.129 17.3742C226.679 17.8644 225.762 19.4513 225.762 19.7397C225.762 19.8211 228.287 19.8875 231.374 19.8875H236.986L236.659 19.1484C236.062 17.7974 234.427 16.4024 232.949 15.9826C231.438 15.5531 231.36 15.5491 230.116 15.8388ZM167.333 16.1567C165.351 16.9089 163.642 19.436 163.621 21.6443C163.565 27.671 171.977 29.7305 174.768 24.3732C176.331 21.3729 175.159 17.8824 172.084 16.3819C170.913 15.8103 168.542 15.698 167.333 16.1567ZM186.756 16.4365C184.585 17.4647 183.094 20.1622 183.467 22.3904C183.97 25.399 186.352 27.4509 189.342 27.4507C191.183 27.4507 192.031 27.1349 193.421 25.9341C195.466 24.1663 195.943 21.5024 194.651 19.0622C193.099 16.1296 189.753 15.0169 186.756 16.4365ZM91.0526 17.3094C90.5815 17.5056 89.836 18.0753 89.3961 18.5752L88.5958 19.4844L92.6091 19.5591C94.8162 19.6002 96.691 19.5682 96.775 19.4876C97.0573 19.2178 95.8123 17.877 94.8389 17.4021C93.7029 16.8477 92.2459 16.8122 91.0526 17.3094ZM110.37 17.6319C109.019 18.2911 108.261 19.4699 108.117 21.138C107.965 22.8806 108.379 23.9263 109.635 24.9817C111.485 26.5353 113.847 26.2878 115.47 24.3702C116.235 23.4656 116.339 23.1402 116.343 21.636C116.349 19.8066 115.924 18.967 114.467 17.9262C113.464 17.2097 111.521 17.0702 110.37 17.6319ZM21.4683 25.969L20.6992 26.3547V34.6773V43H22.2442H23.7892V34.6757V26.3512L23.0133 25.9674C22.3405 25.6347 22.1352 25.6347 21.4683 25.969ZM17.3985 27.9075L15.9238 28.5988V35.5102V42.4214L17.3985 42.6463L18.8733 42.8713L18.9508 39.0553C18.9935 36.9566 18.9935 33.4344 18.9508 31.2279L18.8733 27.2163L17.3985 27.9075ZM25.4746 35.0286V42.9226L26.8792 42.6571L28.2837 42.3913V35.4438V28.4966L26.8792 27.8156L25.4746 27.1346V35.0286Z" fill="#021066"></path><path d="M20.6992 26.3547L21.4683 25.969C22.1352 25.6347 22.3405 25.6347 23.0133 25.9674L23.7892 26.3512V34.6757V43H22.2442H20.6992V34.6773V26.3547Z" fill="#FC8833"></path></svg> 