<?xml version="1.0" encoding="UTF-8"?> <svg xmlns="http://www.w3.org/2000/svg" width="17" height="21" viewBox="0 0 17 21" fill="none"><path d="M8.92009 20.74L16.5301 13.13C16.6348 13.0403 16.7198 12.93 16.7798 12.806C16.8398 12.6819 16.8736 12.5468 16.8789 12.409C16.8842 12.2713 16.861 12.134 16.8107 12.0057C16.7605 11.8773 16.6842 11.7608 16.5867 11.6633C16.4893 11.5659 16.3727 11.4896 16.2444 11.4394C16.1161 11.3891 15.9788 11.3659 15.841 11.3712C15.7033 11.3765 15.5682 11.4102 15.4441 11.4703C15.3201 11.5303 15.2097 11.6153 15.1201 11.72L10.0001 16.82L10.0001 1.81999C10.0001 1.55477 9.89474 1.30042 9.7072 1.11288C9.51967 0.925348 9.26531 0.819989 9.0001 0.819989C8.73488 0.819989 8.48053 0.925347 8.29299 1.11288C8.10545 1.30042 8.0001 1.55477 8.0001 1.81999L8.0001 17L2.7201 11.72C2.63045 11.6153 2.52013 11.5303 2.39607 11.4703C2.272 11.4102 2.13687 11.3765 1.99915 11.3712C1.86143 11.3659 1.7241 11.3891 1.59577 11.4394C1.46745 11.4896 1.3509 11.5659 1.25345 11.6633C1.15599 11.7608 1.07973 11.8773 1.02946 12.0057C0.979183 12.134 0.955977 12.2713 0.961297 12.409C0.966616 12.5468 1.00035 12.6819 1.06037 12.806C1.12039 12.93 1.20541 13.0403 1.3101 13.13L8.92009 20.74Z" fill="white"></path></svg> 