<?xml version="1.0" encoding="UTF-8"?> <svg xmlns="http://www.w3.org/2000/svg" width="22" height="15" viewBox="0 0 22 15" fill="none"><path d="M8.57143 10.7143L14.1321 7.5L8.57143 4.28571V10.7143ZM20.9571 2.325C21.0964 2.82857 21.1929 3.50357 21.2571 4.36071C21.3321 5.21786 21.3643 5.95714 21.3643 6.6L21.4286 7.5C21.4286 9.84643 21.2571 11.5714 20.9571 12.675C20.6893 13.6393 20.0679 14.2607 19.1036 14.5286C18.6 14.6679 17.6786 14.7643 16.2643 14.8286C14.8714 14.9036 13.5964 14.9357 12.4179 14.9357L10.7143 15C6.225 15 3.42857 14.8286 2.325 14.5286C1.36071 14.2607 0.739286 13.6393 0.471429 12.675C0.332143 12.1714 0.235714 11.4964 0.171429 10.6393C0.0964287 9.78214 0.0642857 9.04286 0.0642857 8.4L0 7.5C0 5.15357 0.171429 3.42857 0.471429 2.325C0.739286 1.36071 1.36071 0.739286 2.325 0.471429C2.82857 0.332143 3.75 0.235714 5.16429 0.171428C6.55714 0.0964284 7.83214 0.0642857 9.01071 0.0642857L10.7143 0C15.2036 0 18 0.171429 19.1036 0.471429C20.0679 0.739286 20.6893 1.36071 20.9571 2.325Z" fill="black"></path><path d="M8.57143 10.7143L14.1321 7.5L8.57143 4.28571V10.7143ZM20.9571 2.325C21.0964 2.82857 21.1929 3.50357 21.2571 4.36071C21.3321 5.21786 21.3643 5.95714 21.3643 6.6L21.4286 7.5C21.4286 9.84643 21.2571 11.5714 20.9571 12.675C20.6893 13.6393 20.0679 14.2607 19.1036 14.5286C18.6 14.6679 17.6786 14.7643 16.2643 14.8286C14.8714 14.9036 13.5964 14.9357 12.4179 14.9357L10.7143 15C6.225 15 3.42857 14.8286 2.325 14.5286C1.36071 14.2607 0.739286 13.6393 0.471429 12.675C0.332143 12.1714 0.235714 11.4964 0.171429 10.6393C0.0964287 9.78214 0.0642857 9.04286 0.0642857 8.4L0 7.5C0 5.15357 0.171429 3.42857 0.471429 2.325C0.739286 1.36071 1.36071 0.739286 2.325 0.471429C2.82857 0.332143 3.75 0.235714 5.16429 0.171428C6.55714 0.0964284 7.83214 0.0642857 9.01071 0.0642857L10.7143 0C15.2036 0 18 0.171429 19.1036 0.471429C20.0679 0.739286 20.6893 1.36071 20.9571 2.325Z" fill="url(#paint0_linear_47_98)"></path><defs><linearGradient id="paint0_linear_47_98" x1="10.7143" y1="0" x2="10.7143" y2="15" gradientUnits="userSpaceOnUse"><stop stop-color="#000E95"></stop><stop offset="0.355" stop-color="#505ECE"></stop><stop offset="0.685" stop-color="#FC892E"></stop><stop offset="1" stop-color="#F6CA45"></stop></linearGradient></defs></svg> 