<?xml version="1.0" encoding="UTF-8"?> <svg xmlns="http://www.w3.org/2000/svg" width="255" height="47" viewBox="0 0 255 47" fill="none"><path fill-rule="evenodd" clip-rule="evenodd" d="M18.8173 3.11199L16.1775 6.19695V17.786C16.1775 24.1601 16.24 29.375 16.3165 29.375C16.393 29.375 17.6709 28.7534 19.1564 27.9938C21.7499 26.6678 21.861 26.5712 21.9429 25.5703C22.1187 23.4169 21.8644 0.000587362 21.6652 0.0135124C21.5507 0.0208561 20.2694 1.41499 18.8173 3.11199ZM23.3121 13.3627V26.7254L25.8749 28.0502C27.2844 28.7787 28.5044 29.375 28.586 29.375C28.6677 29.375 28.7344 24.1427 28.7344 17.7475V6.11969L26.1317 3.05999C24.7003 1.3771 23.4802 0 23.4206 0C23.3609 0 23.3121 6.01306 23.3121 13.3627ZM16.0348 1.7437C8.67305 4.0091 3.06382 9.81301 0.949978 17.3521C-1.17385 24.9273 0.286459 32.4362 5.09975 38.6883C7.18192 41.3926 11.7367 44.8398 13.9658 45.3982L14.7506 45.595L14.742 43.727L14.7338 41.8594L12.9601 40.8312C10.7886 39.5725 7.52267 36.2552 6.22417 33.9892C2.62604 27.7109 2.62604 20.1501 6.22417 13.8994C7.54208 11.6096 10.5169 8.56281 12.7529 7.21215C14.4978 6.15817 15.863 4.85334 17.9161 2.27656C18.952 0.976719 18.7309 0.91415 16.0348 1.7437ZM26.499 1.44701C26.8264 2.38378 30.6591 6.23514 32.0789 7.05441C32.9864 7.57816 34.7758 9.0945 36.0554 10.4243C37.8979 12.339 38.6202 13.355 39.5257 15.307C42.2394 21.1573 42.2386 26.726 39.5231 32.5798C38.5931 34.5844 37.9116 35.5296 35.9102 37.5912C34.3788 39.1686 32.8212 40.4597 31.8029 40.9957L30.1628 41.8594L30.1619 43.6953C30.1614 45.8526 30.2966 45.9137 32.5252 44.7619C40.2608 40.7637 45.0014 32.8521 45.0014 23.9406C45.0014 13.6694 38.6758 4.80223 29.2039 1.79599C27.0727 1.11948 26.3518 1.02666 26.499 1.44701ZM126.18 8.94616C125.17 9.98544 125.196 11.965 126.232 13.0319C127.357 14.1896 129.16 14.1303 130.163 12.9024C130.961 11.9268 131.117 10.6584 130.57 9.60092C130.046 8.58866 129.426 8.24439 128.107 8.2344C127.178 8.22735 126.711 8.39978 126.18 8.94616ZM118.06 12.5043V16.49L117.275 15.9274C114.373 13.8474 109.887 14.4313 107.529 17.1964C104.789 20.4086 104.541 25.7598 106.971 29.2428C109.396 32.7182 114.051 33.6776 117.275 31.3663L118.06 30.8038V31.5582C118.06 32.3052 118.082 32.3125 120.343 32.3125H122.626V20.4156V8.51875H120.343H118.06V12.5043ZM143.174 20.4156V32.3125H144.601H146.027V31.2794V30.2466L147.458 31.2594C151.709 34.2692 157.56 32.685 160.071 27.8449C160.627 26.7724 160.725 26.1464 160.725 23.6469C160.725 21.1606 160.626 20.519 160.081 19.4692C159.071 17.5239 157.826 16.2488 156.068 15.3602C154.691 14.664 154.102 14.543 152.163 14.5559C149.768 14.5721 148.122 15.1648 146.67 16.5343L146.027 17.14V12.8292V8.51875H144.601H143.174V20.4156ZM218.515 11.75V14.9812H216.946H215.376V16.1562V17.3312H216.946H218.515V24.8219V32.3125H219.799H221.084V24.8219V17.3312H222.796H224.508V16.1562V14.9812H222.796H221.084V11.75V8.51875H219.799H218.515V11.75ZM134.327 11.8969V14.9812H133.328H132.329V17.0375V19.0938H133.328H134.327V25.7031V32.3125H136.467H138.607V25.7031V19.0938H139.892H141.176V17.0375V14.9812H139.892H138.607V11.8969V8.8125H136.467H134.327V11.8969ZM169.655 14.7871C167.79 15.3296 166.212 16.5343 165.034 18.315C161.902 23.0514 163.531 29.5891 168.445 32.0064C170.428 32.982 173.823 33.0099 175.85 32.0666C177.713 31.2007 179.508 29.365 180.321 27.4947C181.244 25.3729 181.238 21.9067 180.307 19.7653C179.544 18.0095 177.429 15.8281 175.808 15.1249C174.306 14.4731 171.301 14.308 169.655 14.7871ZM189.784 14.7988C187.21 15.6657 185.566 17.1929 184.37 19.8281C183.846 20.9843 183.703 21.8024 183.701 23.6733C183.699 25.7378 183.812 26.2853 184.568 27.841C186.178 31.1586 188.642 32.6964 192.402 32.7314C194.351 32.7493 194.924 32.6318 196.316 31.9286C199.404 30.3688 201.226 27.2944 201.226 23.6469C201.226 18.5518 197.757 14.773 192.831 14.5004C191.756 14.4407 190.474 14.5665 189.784 14.7988ZM206.233 15.0547C204.812 15.7923 203.675 17.6523 203.675 19.2406C203.675 19.7376 203.964 20.734 204.317 21.4549C204.84 22.5218 205.384 23.0256 207.242 24.163C210.913 26.4099 211.575 27.6292 209.98 29.2026C208.816 30.3503 207.426 30.3121 205.736 29.0862L204.448 28.1515L203.786 28.9834C202.955 30.0298 202.949 30.3018 203.747 31.052C207.494 34.5797 213.378 32.4785 213.378 27.6125C213.378 25.1482 212.553 24.1004 208.879 21.8958C207.897 21.306 206.887 20.5014 206.636 20.1075C206.012 19.1261 206.334 18.038 207.42 17.4596C208.472 16.8997 209.437 17.0836 210.719 18.0885C211.852 18.9754 211.941 18.9666 212.769 17.8891C213.429 17.0287 213.432 16.9981 212.911 16.3951C212.15 15.5138 209.7 14.3999 208.516 14.3967C207.96 14.3949 206.933 14.6913 206.233 15.0547ZM232.065 14.9049C230.137 15.6152 228.967 16.5179 227.895 18.1229C225.602 21.5518 225.671 26.0888 228.067 29.4299C231.332 33.9848 238.945 33.909 242.114 29.2901C243.423 27.3816 243.42 27.4151 242.384 26.7562C241.098 25.9378 240.925 25.9716 240.198 27.1816C238.896 29.3512 235.785 30.6361 233.421 29.9807C231.278 29.3867 229.1 26.7609 229.081 24.7484L229.074 24.0875H236.391H243.708L243.558 22.3799C243.381 20.3757 242.369 18.1679 241.015 16.8322C238.867 14.7142 234.901 13.8603 232.065 14.9049ZM251.334 14.7072C250.942 14.8764 250.268 15.3625 249.836 15.7873L249.051 16.5599V15.7706C249.051 15.0191 248.983 14.9812 247.624 14.9812H246.197V23.6469V32.3125H247.599H249L249.102 26.5109C249.196 21.1764 249.256 20.6092 249.845 19.4653C250.66 17.8817 251.58 17.2575 252.921 17.3765C253.865 17.4599 254.027 17.363 254.577 16.3865C255.04 15.564 255.107 15.2221 254.855 14.9624C254.398 14.4924 252.202 14.3332 251.334 14.7072ZM62.4098 14.9457C58.3186 16.3254 56.0429 19.369 56.0135 23.5C55.9944 26.1664 56.4016 27.4621 57.8508 29.3494C59.3853 31.3472 61.4877 32.3718 64.4118 32.546C65.6544 32.6201 67.2705 32.5216 68.0747 32.3231C69.5581 31.9568 71.8438 30.4886 72.553 29.4464C72.9299 28.8927 72.8426 28.7781 71.1977 27.6654L69.4397 26.476L68.6229 27.1833C66.0739 29.3912 61.8953 28.5322 60.6967 25.5542C60.2001 24.3199 60.4721 22.0075 61.2455 20.8894C62.1758 19.5444 63.4129 18.9736 65.4286 18.9592C66.8918 18.9489 67.3242 19.0732 68.192 19.7547C68.7579 20.1991 69.3743 20.5625 69.5621 20.5625C70.0658 20.5625 72.969 18.8003 72.969 18.4945C72.969 17.9563 70.8344 16.0605 69.5698 15.4759C68.1503 14.8197 63.75 14.4939 62.4098 14.9457ZM80.2563 15.5993L79.2475 16.5108V15.7462C79.2475 15.0006 79.2007 14.9812 77.3925 14.9812H75.5375V23.6469V32.3125H77.6779H79.8183V27.48C79.8183 24.8222 79.957 21.9813 80.1268 21.167C80.5083 19.3355 81.4841 18.3908 82.5594 18.8118C83.0642 19.0091 83.2974 18.9842 83.3844 18.7233C83.4509 18.523 83.7649 17.6385 84.0822 16.7576C84.7586 14.8796 84.6296 14.6987 82.6108 14.6919C81.5089 14.6884 81.0822 14.8529 80.2563 15.5993ZM91.1532 15.0926C88.557 16.0869 86.4369 18.5156 85.7871 21.2396C85.3502 23.0705 85.5868 25.9828 86.3062 27.6304C87.0354 29.3004 88.7408 31.0532 90.3775 31.8146C92.142 32.6356 95.5124 32.8192 97.5612 32.2062C99.1437 31.7326 101.793 29.7025 101.793 28.9635C101.793 28.7646 101.039 28.2311 100.119 27.7782L98.4442 26.9545L97.1682 27.7241C94.6198 29.2616 91.476 28.5349 90.307 26.1379L89.8084 25.1156L96.4085 25.0366L103.009 24.9576L102.874 22.8335C102.663 19.5035 101.297 17.2252 98.606 15.7162C97.328 14.9995 96.6954 14.8482 94.6583 14.7709C93.0695 14.7107 91.8601 14.8217 91.1532 15.0926ZM126.051 23.6469V32.3125H128.191H130.331V23.6469V14.9812H128.191H126.051V23.6469ZM11.8254 16.9085L9.3283 18.219V25.5595C9.3283 29.5968 9.39508 32.9 9.4767 32.9C9.55832 32.9 10.7783 32.3037 12.1879 31.5752L14.7506 30.2504V22.9096C14.7506 18.872 14.6544 15.5755 14.5366 15.5837C14.4187 15.5917 13.199 16.188 11.8254 16.9085ZM30.1614 22.9096V30.2504L32.7241 31.5752C34.1336 32.3037 35.4179 32.9 35.578 32.9C35.768 32.9 35.8691 30.3532 35.8691 25.5592V18.2184L33.3063 16.8936C31.8968 16.1651 30.6126 15.5687 30.4525 15.5687C30.2624 15.5687 30.1614 18.1156 30.1614 22.9096ZM150.091 17.4138C147.567 18.3987 145.934 20.7937 145.941 23.5C145.946 25.4675 146.492 26.8705 147.762 28.1774C148.998 29.4499 150.221 29.9625 152.021 29.9625C153.875 29.9625 155.09 29.4285 156.404 28.0361C158.58 25.7293 158.731 22.2472 156.767 19.611C155.207 17.5163 152.289 16.556 150.091 17.4138ZM233.783 17.3122C232.628 17.6018 231.314 18.3285 230.749 18.9904C230.292 19.5261 229.36 21.2607 229.36 21.5759C229.36 21.6649 231.925 21.7375 235.061 21.7375H240.763L240.431 20.9297C239.824 19.453 238.162 17.9282 236.662 17.4693C235.126 16.9999 235.047 16.9955 233.783 17.3122ZM170 17.6597C167.986 18.4819 166.25 21.244 166.229 23.6577C166.171 30.2451 174.718 32.4961 177.553 26.6405C179.141 23.3611 177.95 19.5458 174.827 17.9058C173.637 17.281 171.228 17.1582 170 17.6597ZM189.732 17.9655C187.526 19.0893 186.012 22.0377 186.391 24.4732C186.901 27.7617 189.322 30.0045 192.36 30.0042C194.23 30.0042 195.092 29.6591 196.503 28.3466C198.581 26.4143 199.066 23.5026 197.753 20.8354C196.176 17.63 192.777 16.4139 189.732 17.9655ZM92.5036 18.9196C92.025 19.134 91.2676 19.7567 90.8207 20.3031L90.0077 21.2969L94.0849 21.3785C96.3272 21.4235 98.2319 21.3885 98.3172 21.3004C98.604 21.0055 97.3392 19.54 96.3503 19.0209C95.1962 18.4149 93.7159 18.3761 92.5036 18.9196ZM112.129 19.2721C110.756 19.9926 109.986 21.281 109.84 23.1043C109.686 25.009 110.106 26.152 111.382 27.3055C113.261 29.0037 115.662 28.7332 117.31 26.6372C118.087 25.6485 118.193 25.2928 118.197 23.6486C118.203 21.6491 117.772 20.7314 116.291 19.5937C115.272 18.8106 113.299 18.6581 112.129 19.2721ZM21.8104 28.3848L21.0291 28.8063V37.9031V47H22.5987H24.1683V37.9014V28.8025L23.3801 28.383C22.6966 28.0193 22.4879 28.0193 21.8104 28.3848ZM17.6758 30.5036L16.1775 31.2591V38.8135V46.3676L17.6758 46.6134L19.1741 46.8593L19.2528 42.6883C19.2962 40.3944 19.2962 36.5446 19.2528 34.1329L19.1741 29.7481L17.6758 30.5036ZM25.8806 38.2871V46.9154L27.3075 46.6252L28.7344 46.3347V38.7409V31.1475L27.3075 30.4031L25.8806 29.6588V38.2871Z" fill="white"></path><path d="M21.0291 28.8063L21.8104 28.3848C22.4879 28.0193 22.6966 28.0193 23.3801 28.383L24.1683 28.8025V37.9014V47H22.5987H21.0291V37.9031V28.8063Z" fill="#FC8833"></path></svg> 