<svg width="980" height="1080" viewBox="0 0 980 1080" fill="none" xmlns="http://www.w3.org/2000/svg">
  <defs>
    <linearGradient id="cardFill" x1="172" y1="90" x2="738" y2="942" gradientUnits="userSpaceOnUse">
      <stop stop-color="#FFFFFF"/>
      <stop offset="1" stop-color="#F3F6FB"/>
    </linearGradient>
    <linearGradient id="cardGlow" x1="214" y1="180" x2="686" y2="906" gradientUnits="userSpaceOnUse">
      <stop stop-color="#FFFDF5" stop-opacity="0.95"/>
      <stop offset="1" stop-color="#EEF4FB" stop-opacity="0.88"/>
    </linearGradient>
    <linearGradient id="redArc" x1="170" y1="422" x2="324" y2="318" gradientUnits="userSpaceOnUse">
      <stop stop-color="#F35B44"/>
      <stop offset="1" stop-color="#FF8B69"/>
    </linearGradient>
    <linearGradient id="amberArc" x1="300" y1="318" x2="482" y2="290" gradientUnits="userSpaceOnUse">
      <stop stop-color="#E6A800"/>
      <stop offset="1" stop-color="#FFD75B"/>
    </linearGradient>
    <linearGradient id="greenArc" x1="490" y1="290" x2="630" y2="422" gradientUnits="userSpaceOnUse">
      <stop stop-color="#2FD07D"/>
      <stop offset="1" stop-color="#12A45E"/>
    </linearGradient>
    <linearGradient id="scoreFill" x1="262" y1="520" x2="468" y2="620" gradientUnits="userSpaceOnUse">
      <stop stop-color="#2DB55B"/>
      <stop offset="1" stop-color="#0B8F45"/>
    </linearGradient>
    <filter id="cardShadow" x="74" y="24" width="852" height="1020" filterUnits="userSpaceOnUse" color-interpolation-filters="sRGB">
      <feDropShadow dx="0" dy="26" stdDeviation="28" flood-color="#000000" flood-opacity="0.18"/>
      <feDropShadow dx="0" dy="0" stdDeviation="18" flood-color="#FFF3B0" flood-opacity="0.22"/>
    </filter>
    <filter id="innerGlow" x="150" y="84" width="620" height="900" filterUnits="userSpaceOnUse" color-interpolation-filters="sRGB">
      <feGaussianBlur stdDeviation="20"/>
    </filter>
    <filter id="needleShadow" x="345" y="316" width="232" height="176" filterUnits="userSpaceOnUse" color-interpolation-filters="sRGB">
      <feDropShadow dx="0" dy="10" stdDeviation="8" flood-color="#000000" flood-opacity="0.16"/>
    </filter>
    <filter id="scoreGlow" x="188" y="470" width="342" height="172" filterUnits="userSpaceOnUse" color-interpolation-filters="sRGB">
      <feGaussianBlur stdDeviation="20"/>
    </filter>
    <style>
      .sans { font-family: "Inter", "Segoe UI", Arial, sans-serif; }
      .head { fill: #17263A; font-weight: 900; letter-spacing: 0.01em; }
      .meta { fill: #3E556D; font-weight: 700; }
      .tiny { fill: #4C6178; font-weight: 800; letter-spacing: 0.06em; }
      .list { fill: #101C2C; font-weight: 900; }
      .list-sub { fill: #26384E; font-weight: 700; }
    </style>
  </defs>

  <g filter="url(#cardShadow)" transform="translate(132 118) rotate(10 355 435)">
    <rect x="0" y="0" width="710" height="870" rx="54" fill="url(#cardFill)"/>
    <rect x="18" y="18" width="674" height="834" rx="42" fill="url(#cardGlow)" opacity="0.78"/>
    <rect x="0.75" y="0.75" width="708.5" height="868.5" rx="53.25" stroke="#DCE5EF" stroke-opacity="0.7" stroke-width="1.5"/>

    <g opacity="0.08" filter="url(#innerGlow)">
      <circle cx="290" cy="338" r="120" fill="#FFFFFF"/>
      <circle cx="520" cy="210" r="96" fill="#FFFFFF"/>
      <circle cx="540" cy="688" r="100" fill="#B6C7DB"/>
    </g>

    <g transform="translate(82 56)">
      <path d="M14 2L28 8V18C28 27 22.6 34.5 14 39C5.4 34.5 0 27 0 18V8L14 2Z" stroke="#6E8398" stroke-width="3.5" fill="none"/>
      <path d="M8 20.5L12.2 24.7L21.5 13.5" stroke="#6E8398" stroke-width="3.5" stroke-linecap="round" stroke-linejoin="round"/>
      <text x="46" y="33" class="sans head" font-size="33">GlobalCreditInfo</text>
    </g>

    <text x="82" y="150" class="sans meta" font-size="30">CREDIT REPORT</text>
    <text x="82" y="218" class="sans head" font-size="74">PERSONAL CREDIT SCORE</text>
    <text x="82" y="274" class="sans meta" font-size="34">КРЕДИТНЫЙ РЕЙТИНГ</text>

    <g transform="translate(0 8)">
      <path d="M188 454 A190 190 0 0 1 330 318" stroke="url(#redArc)" stroke-width="34" stroke-linecap="round"/>
      <path d="M346 308 A190 190 0 0 1 504 308" stroke="url(#amberArc)" stroke-width="34" stroke-linecap="round"/>
      <path d="M518 318 A190 190 0 0 1 630 454" stroke="url(#greenArc)" stroke-width="34" stroke-linecap="round"/>

      <text x="132" y="404" class="sans meta" font-size="28" transform="rotate(-61 132 404)">POOR 300-600</text>
      <text x="344" y="284" class="sans meta" font-size="26">FAIR 601-680</text>
      <text x="632" y="388" class="sans meta" font-size="28" transform="rotate(67 632 388)">EXCELLENT 681-850</text>

      <text x="196" y="510" class="sans meta" font-size="28">ПЛОХО</text>
      <text x="344" y="410" class="sans meta" font-size="28">УДОВЛ.</text>
      <text x="542" y="510" class="sans meta" font-size="28">ОТЛИЧНО</text>

      <g filter="url(#needleShadow)">
        <line x1="420" y1="456" x2="562" y2="384" stroke="#8A9198" stroke-width="9" stroke-linecap="round"/>
        <path d="M560 377L590 372L570 394Z" fill="#ADB4BB"/>
      </g>
      <circle cx="420" cy="456" r="22" fill="#1AC260"/>
      <circle cx="420" cy="456" r="40" fill="#7EF8B8" opacity="0.28"/>
    </g>

    <g filter="url(#scoreGlow)">
      <ellipse cx="353" cy="590" rx="118" ry="42" fill="#67F09D" opacity="0.36"/>
    </g>
    <text x="238" y="626" class="sans" font-size="112" font-weight="900" fill="url(#scoreFill)">740+</text>
    <text x="258" y="680" class="sans meta" font-size="27">(Range: 300-850, FICO Score 8)</text>
    <text x="226" y="714" class="sans meta" font-size="27">(Диапазон: 300-850, FICO Score 8)</text>

    <g transform="translate(58 734)">
      <rect x="0" y="0" width="594" height="104" rx="26" fill="#FFFFFF" fill-opacity="0.58" stroke="#D1DBE6" stroke-width="1.5"/>
      <text x="30" y="38" class="sans list" font-size="24">КЛЮЧЕВЫЕ ФАКТОРЫ ВАШЕЙ ОЦЕНКИ:</text>

      <g transform="translate(30 58)">
        <circle cx="10" cy="7" r="10" stroke="#0D9F4C" stroke-width="3" fill="none"/>
        <path d="M5 7L9 11L16 4" stroke="#0D9F4C" stroke-width="3" stroke-linecap="round" stroke-linejoin="round"/>
        <text x="34" y="13" class="sans list" font-size="22">ИСТОРИЯ ПЛАТЕЖЕЙ:</text>
        <text x="334" y="13" class="sans" font-size="22" font-weight="900" fill="#159853">ОТЛИЧНО</text>
      </g>

      <g transform="translate(30 93)">
        <rect x="0" y="-3" width="20" height="14" rx="4" stroke="#536B82" stroke-width="3" fill="none"/>
        <path d="M0 2H20" stroke="#536B82" stroke-width="3"/>
        <text x="34" y="8" class="sans list" font-size="22">ИСПОЛЬЗОВАНИЕ КРЕДИТА:</text>
        <text x="446" y="8" class="sans" font-size="22" font-weight="900" fill="#D29A11">НИЗКОЕ</text>
      </g>
    </g>

    <g transform="translate(92 870)">
      <text x="0" y="0" class="sans list-sub" font-size="18">ОБНОВЛЕНО: 26 ОКТ 2023 | ДАННЫЕ TRANSUNION, EQUIFAX</text>
    </g>
  </g>
</svg>
