<?xml version="1.0" encoding="UTF-8"?> <svg xmlns="http://www.w3.org/2000/svg" width="200" height="61" viewBox="0 0 200 61" fill="none"><path d="M199.02 10.3932C199.597 9.79864 199.582 8.84901 198.988 8.27211C198.393 7.69522 197.444 7.70953 196.867 8.30407L199.02 10.3932ZM152.227 38.053L152.662 39.4887L152.227 38.053ZM113.6 34.689L114.52 33.5047L113.6 34.689ZM107.881 26.4452L106.393 26.6358L106.417 26.8296L106.491 27.0105L107.881 26.4452ZM115.716 8.96413L116.702 10.0951L116.702 10.0951L115.716 8.96413ZM133.253 2.40878L133.162 0.911536L133.162 0.911536L133.253 2.40878ZM151.802 8.68151L150.8 9.79818L150.847 9.84029L150.897 9.8783L151.802 8.68151ZM131.711 40.6252L132.634 41.8071L132.634 41.8071L131.711 40.6252ZM86.4527 58.0077L86.2002 56.5291L86.4527 58.0077ZM33.0827 52.7301L33.4805 51.2838L33.0827 52.7301ZM5.19994 38.9969L4.58003 40.3628L5.19994 38.9969ZM1.79868 35.4505C0.973169 35.5199 0.360255 36.2454 0.429699 37.0709L1.56135 50.5234C1.6308 51.3489 2.3563 51.9619 3.18181 51.8924C4.00732 51.823 4.62024 51.0975 4.55079 50.2719L3.54488 38.3142L15.5026 37.3083C16.3282 37.2388 16.9411 36.5133 16.8716 35.6878C16.8022 34.8623 16.0767 34.2494 15.2512 34.3188L1.79868 35.4505ZM196.867 8.30407C192.625 12.6754 184.336 18.8622 175.535 24.4389C166.725 30.0219 157.624 34.8525 151.793 36.6173L152.662 39.4887C158.907 37.5987 168.296 32.578 177.141 26.973C185.996 21.3617 194.527 15.0237 199.02 10.3932L196.867 8.30407ZM151.793 36.6173C146.499 38.2197 139.342 39.1699 132.38 38.8281C125.38 38.4845 118.822 36.8477 114.52 33.5047L112.679 35.8734C117.692 39.7689 124.98 41.4685 132.233 41.8245C139.522 42.1824 147.023 41.1953 152.662 39.4887L151.793 36.6173ZM114.52 33.5047C113.481 32.6969 112.648 31.9225 111.845 30.8198C111.031 29.7013 110.211 28.1918 109.27 25.8799L106.491 27.0105C107.485 29.4532 108.413 31.202 109.42 32.5851C110.438 33.9839 111.497 34.9541 112.679 35.8734L114.52 33.5047ZM109.368 26.2547C108.911 22.6812 109.442 19.8228 110.688 17.3036C111.95 14.7523 113.991 12.4568 116.702 10.0951L114.731 7.83314C111.88 10.3168 109.511 12.9176 107.999 15.9734C106.472 19.0613 105.866 22.5207 106.393 26.6358L109.368 26.2547ZM116.702 10.0951C121.692 5.74784 126.384 4.32883 133.344 3.90602L133.162 0.911536C125.749 1.36185 120.357 2.93156 114.731 7.83314L116.702 10.0951ZM133.344 3.90602C139.656 3.52259 146.048 5.53559 150.8 9.79818L152.803 7.56485C147.405 2.72342 140.208 0.483528 133.162 0.911536L133.344 3.90602ZM150.897 9.8783C151.782 10.5469 152.209 11.3317 152.344 12.2374C152.487 13.1951 152.315 14.3881 151.785 15.8122C150.718 18.6763 148.379 22.0231 145.519 25.3584C139.829 31.9939 132.5 38.1043 130.787 39.4432L132.634 41.8071C134.429 40.4043 141.927 34.1559 147.797 27.3113C150.716 23.9066 153.34 20.2332 154.596 16.8588C155.227 15.1637 155.556 13.4329 155.312 11.7951C155.06 10.1051 154.212 8.62251 152.706 7.48473L150.897 9.8783ZM130.787 39.4432C117.328 49.961 102.913 53.6749 86.2002 56.5291L86.7052 59.4862C103.545 56.6103 118.571 52.7968 132.634 41.8071L130.787 39.4432ZM86.2002 56.5291C67.9714 59.6421 51.7228 56.3017 33.4805 51.2838L32.6849 54.1764C51.0091 59.2168 67.794 62.7158 86.7052 59.4862L86.2002 56.5291ZM33.4805 51.2838C28.5408 49.925 24.0818 47.6477 19.6077 45.1212C15.1779 42.6198 10.662 39.8285 5.81985 37.6309L4.58003 40.3628C9.26197 42.4876 13.5638 45.1536 18.1326 47.7335C22.6569 50.2884 27.3773 52.7164 32.6849 54.1764L33.4805 51.2838ZM5.81985 37.6309C4.47373 37.02 3.90019 36.6507 2.89244 35.7994L0.956404 38.091C2.18267 39.127 2.99215 39.6421 4.58003 40.3628L5.81985 37.6309Z" fill="black"></path></svg> 