<?xml version="1.0" encoding="UTF-8"?> <svg xmlns="http://www.w3.org/2000/svg" width="59" height="26" viewBox="0 0 59 26" fill="none"><path d="M2 9.07678C3.44948 11.8961 8.17679 24.8332 13.5803 22.8846C15.5172 22.1862 16.7207 18.4661 16.9406 16.5992C17.1558 14.7717 16.3264 12.6318 16.0343 10.8328C15.8901 9.94464 14.7091 7.72916 15.4824 8.19067C18.4843 9.98221 22.7807 20.6475 26.1842 20.2925C29.7647 19.919 31.5074 11.9403 31.1603 9.0949C30.9187 7.11439 29.7235 1.3076 30.4976 3.14602C32.2263 7.25169 34.3474 15.9815 38.9813 17.7786C44.9966 20.1115 52.1329 14.6268 56.3027 11.3637" stroke="url(#paint0_linear_9_89)" stroke-width="4" stroke-linecap="round"></path><defs><linearGradient id="paint0_linear_9_89" x1="5.66976" y1="7.53162" x2="48.4121" y2="-2.95847" gradientUnits="userSpaceOnUse"><stop stop-color="#F6CA45"></stop><stop offset="1" stop-color="#FC892E"></stop></linearGradient></defs></svg> 