<?xml version="1.0" encoding="UTF-8"?> <svg xmlns="http://www.w3.org/2000/svg" width="137" height="39" viewBox="0 0 137 39" fill="none"> <rect x="0.5" y="0.5" width="135.6" height="38" rx="7.5" fill="#F6F8F7"></rect> <path d="M21.2 13.995H22.715C23.395 13.995 23.945 14.05 24.365 14.16C24.785 14.27 25.155 14.475 25.475 14.775C26.005 15.275 26.27 15.935 26.27 16.755C26.27 17.225 26.17 17.62 25.97 17.94C25.79 18.25 25.54 18.48 25.22 18.63C25.74 18.76 26.17 19 26.51 19.35C26.95 19.81 27.17 20.435 27.17 21.225C27.17 21.955 26.95 22.555 26.51 23.025C25.89 23.675 24.955 24 23.705 24H21.2V13.995ZM22.73 15.435V18.3H23.195C23.755 18.3 24.17 18.17 24.44 17.91C24.7 17.66 24.83 17.28 24.83 16.77C24.83 16.36 24.71 16.04 24.47 15.81C24.21 15.56 23.805 15.435 23.255 15.435H22.73ZM22.73 19.56V22.56H23.66C24.35 22.56 24.855 22.43 25.175 22.17C25.505 21.91 25.67 21.54 25.67 21.06C25.67 20.63 25.535 20.28 25.265 20.01C24.955 19.71 24.43 19.56 23.69 19.56H22.73ZM28.8255 17.685H30.2955V21.27L34.6155 17.115V24H33.1455V20.325L28.8255 24.48V17.685ZM37.012 17.685H41.752V22.65H42.712V25.8H41.362V24H36.952V25.8H35.602V22.65C36.112 22.62 36.497 22.345 36.757 21.825C36.927 21.455 37.012 20.9 37.012 20.16V17.685ZM40.282 22.65V19.035H38.422V20.715C38.422 21.625 38.177 22.27 37.687 22.65H40.282ZM48.1919 21.87L49.4219 22.56C49.1419 23.06 48.7869 23.445 48.3569 23.715C47.8669 24.035 47.2469 24.195 46.4969 24.195C45.6169 24.195 44.9069 23.925 44.3669 23.385C43.7469 22.765 43.4369 21.96 43.4369 20.97C43.4369 19.93 43.7719 19.065 44.4419 18.375C45.0119 17.805 45.7169 17.52 46.5569 17.52C47.3769 17.52 48.0519 17.795 48.5819 18.345C49.1719 18.955 49.4669 19.845 49.4669 21.015V21.195H44.9369C44.9769 21.725 45.1569 22.15 45.4769 22.47C45.7469 22.74 46.1219 22.875 46.6019 22.875C46.9919 22.875 47.3269 22.77 47.6069 22.56C47.8369 22.38 48.0319 22.15 48.1919 21.87ZM45.0419 19.995H47.9669C47.9069 19.645 47.7569 19.36 47.5169 19.14C47.2569 18.9 46.9269 18.78 46.5269 18.78C46.1069 18.78 45.7619 18.915 45.4919 19.185C45.2719 19.385 45.1219 19.655 45.0419 19.995ZM51.6332 18.465C52.2832 17.835 53.0882 17.52 54.0482 17.52C55.0082 17.52 55.8082 17.835 56.4482 18.465C57.0982 19.085 57.4232 19.88 57.4232 20.85C57.4232 21.81 57.0982 22.61 56.4482 23.25C55.8082 23.88 55.0082 24.195 54.0482 24.195C53.0882 24.195 52.2832 23.88 51.6332 23.25C50.9932 22.61 50.6732 21.81 50.6732 20.85C50.6732 19.88 50.9932 19.085 51.6332 18.465ZM52.6832 22.335C53.0232 22.695 53.4782 22.875 54.0482 22.875C54.6182 22.875 55.0732 22.695 55.4132 22.335C55.7532 21.965 55.9232 21.475 55.9232 20.865C55.9232 20.195 55.7382 19.69 55.3682 19.35C55.0082 19.01 54.5682 18.84 54.0482 18.84C53.5282 18.84 53.0832 19.01 52.7132 19.35C52.3532 19.69 52.1732 20.195 52.1732 20.865C52.1732 21.475 52.3432 21.965 52.6832 22.335ZM63.0883 18.465C63.7383 17.835 64.5433 17.52 65.5033 17.52C66.4633 17.52 67.2633 17.835 67.9033 18.465C68.5533 19.085 68.8783 19.88 68.8783 20.85C68.8783 21.81 68.5533 22.61 67.9033 23.25C67.2633 23.88 66.4633 24.195 65.5033 24.195C64.5433 24.195 63.7383 23.88 63.0883 23.25C62.4483 22.61 62.1283 21.81 62.1283 20.85C62.1283 19.88 62.4483 19.085 63.0883 18.465ZM64.1383 22.335C64.4783 22.695 64.9333 22.875 65.5033 22.875C66.0733 22.875 66.5283 22.695 66.8683 22.335C67.2083 21.965 67.3783 21.475 67.3783 20.865C67.3783 20.195 67.1933 19.69 66.8233 19.35C66.4633 19.01 66.0233 18.84 65.5033 18.84C64.9833 18.84 64.5383 19.01 64.1683 19.35C63.8083 19.69 63.6283 20.195 63.6283 20.865C63.6283 21.475 63.7983 21.965 64.1383 22.335ZM74.7624 19.035H72.9174V24H71.4474V19.035H69.6024V17.685H74.7624V19.035ZM76.3504 19.32L75.4054 18.495C75.6454 18.205 75.9654 17.97 76.3654 17.79C76.7854 17.61 77.2804 17.52 77.8504 17.52C78.5104 17.52 79.0454 17.665 79.4554 17.955C79.8954 18.275 80.1154 18.705 80.1154 19.245C80.1154 19.595 80.0254 19.885 79.8454 20.115C79.6954 20.315 79.4954 20.465 79.2454 20.565C79.6254 20.645 79.9304 20.8 80.1604 21.03C80.4304 21.3 80.5654 21.65 80.5654 22.08C80.5654 22.65 80.3854 23.115 80.0254 23.475C79.5454 23.955 78.8054 24.195 77.8054 24.195C77.1354 24.195 76.5854 24.07 76.1554 23.82C75.7054 23.56 75.3754 23.185 75.1654 22.695L76.3354 22.095C76.4754 22.395 76.6604 22.615 76.8904 22.755C77.1404 22.915 77.4554 22.995 77.8354 22.995C78.2954 22.995 78.6304 22.89 78.8404 22.68C78.9904 22.51 79.0654 22.325 79.0654 22.125C79.0654 21.915 79.0004 21.745 78.8704 21.615C78.7004 21.435 78.3504 21.345 77.8204 21.345H77.1604V20.145H77.7154C78.0354 20.145 78.2754 20.09 78.4354 19.98C78.6154 19.84 78.7054 19.655 78.7054 19.425C78.7054 19.185 78.6154 19.005 78.4354 18.885C78.2854 18.775 78.0504 18.72 77.7304 18.72C77.4304 18.72 77.1554 18.78 76.9054 18.9C76.6954 19 76.5104 19.14 76.3504 19.32ZM82.1019 24V17.685H83.5719V19.92H84.4119C84.6819 19.92 84.9019 19.93 85.0719 19.95C85.2419 19.96 85.4469 20.015 85.6869 20.115C85.9269 20.215 86.1369 20.365 86.3169 20.565C86.6469 20.935 86.8119 21.395 86.8119 21.945C86.8119 22.575 86.6219 23.08 86.2419 23.46C86.0719 23.63 85.8669 23.76 85.6269 23.85C85.3969 23.93 85.2019 23.975 85.0419 23.985C84.8919 23.995 84.6769 24 84.3969 24H82.1019ZM83.5719 22.74H84.2469C84.6069 22.74 84.8619 22.695 85.0119 22.605C85.2319 22.445 85.3419 22.23 85.3419 21.96C85.3419 21.68 85.2369 21.47 85.0269 21.33C84.8669 21.23 84.6119 21.18 84.2619 21.18H83.5719V22.74ZM87.4719 24V17.685H88.9419V24H87.4719ZM90.803 17.685H93.278C93.908 17.685 94.388 17.81 94.718 18.06C95.108 18.37 95.303 18.775 95.303 19.275C95.303 19.845 95.053 20.255 94.553 20.505C94.873 20.565 95.158 20.705 95.408 20.925C95.738 21.225 95.903 21.63 95.903 22.14C95.903 22.75 95.673 23.23 95.213 23.58C94.833 23.86 94.348 24 93.758 24H90.803V17.685ZM92.273 20.145H93.023C93.283 20.145 93.478 20.1 93.608 20.01C93.798 19.89 93.893 19.72 93.893 19.5C93.893 19.29 93.808 19.125 93.638 19.005C93.518 18.925 93.303 18.885 92.993 18.885H92.273V20.145ZM92.273 22.8H93.368C93.698 22.8 93.953 22.74 94.133 22.62C94.333 22.49 94.433 22.305 94.433 22.065C94.433 21.805 94.338 21.62 94.148 21.51C93.978 21.4 93.733 21.345 93.413 21.345H92.273V22.8Z" fill="#505ECE"></path> <path d="M107 24.5L116.6 18.5L107 12.5V24.5Z" fill="#505ECE"></path> <rect x="0.5" y="0.5" width="135.6" height="38" rx="7.5" stroke="#8A92D7"></rect> </svg> 