<?xml version="1.0" encoding="UTF-8"?> <svg xmlns="http://www.w3.org/2000/svg" width="32" height="32" viewBox="0 0 32 32" fill="none"><path d="M16 32C19.1645 32 22.2579 31.0616 24.8891 29.3035C27.5203 27.5454 29.5711 25.0466 30.7821 22.1229C31.9931 19.1993 32.3099 15.9823 31.6926 12.8786C31.0752 9.77486 29.5513 6.92393 27.3137 4.68629C25.0761 2.44865 22.2251 0.924797 19.1214 0.307433C16.0177 -0.309931 12.8007 0.00692224 9.87706 1.21792C6.95344 2.42893 4.45458 4.47969 2.69648 7.11087C0.938377 9.74206 -5.95398e-06 12.8355 -6.23063e-06 16C-6.60161e-06 20.2435 1.6857 24.3131 4.68628 27.3137C7.68687 30.3143 11.7565 32 16 32ZM16 2C18.7689 2 21.4757 2.82108 23.778 4.35942C26.0803 5.89776 27.8747 8.08427 28.9343 10.6424C29.9939 13.2006 30.2712 16.0155 29.731 18.7313C29.1908 21.447 27.8574 23.9416 25.8995 25.8995C23.9416 27.8574 21.447 29.1908 18.7313 29.731C16.0155 30.2712 13.2006 29.9939 10.6424 28.9343C8.08426 27.8747 5.89776 26.0803 4.35942 23.778C2.82108 21.4757 1.99999 18.7689 1.99999 16C1.99999 12.287 3.47499 8.72601 6.1005 6.1005C8.72601 3.47499 12.287 2 16 2Z" fill="white"></path></svg> 